<?xml version="1.0" encoding="UTF-8"?>
<!DOCTYPE svg PUBLIC "-//W3C//DTD SVG 1.1//EN" "http://www.w3.org/Graphics/SVG/1.1/DTD/svg11.dtd">
<svg xmlns="http://www.w3.org/2000/svg" version="1.1" width="500px" height="500px" style="shape-rendering:geometricPrecision; text-rendering:geometricPrecision; image-rendering:optimizeQuality; fill-rule:evenodd; clip-rule:evenodd" xmlns:xlink="http://www.w3.org/1999/xlink">
<g><path style="opacity:1" fill="#0e1012" d="M 234.5,216.5 C 235.497,199.341 235.83,182.008 235.5,164.5C 257.5,164.5 279.5,164.5 301.5,164.5C 307.892,176.953 314.059,189.619 320,202.5C 325.372,189.52 331.205,176.853 337.5,164.5C 360.167,164.5 382.833,164.5 405.5,164.5C 405.5,198.5 405.5,232.5 405.5,266.5C 391.167,266.5 376.833,266.5 362.5,266.5C 362.667,249.163 362.5,231.83 362,214.5C 361.487,215.527 360.987,216.527 360.5,217.5C 352.113,233.938 343.447,250.271 334.5,266.5C 324.851,267.665 315.184,267.832 305.5,267C 296.76,251.685 288.427,236.185 280.5,220.5C 280.217,219.711 279.717,219.044 279,218.5C 278.503,221.146 278.336,223.813 278.5,226.5C 278.259,243.996 270.592,256.996 255.5,265.5C 258.127,271.214 260.46,277.047 262.5,283C 260.058,286.599 260.391,290.099 263.5,293.5C 265.419,294.612 267.086,295.946 268.5,297.5C 267.033,296.708 265.7,296.708 264.5,297.5C 266.275,302.044 268.275,306.377 270.5,310.5C 270.263,311.791 270.596,312.791 271.5,313.5C 272.73,315.297 273.396,317.297 273.5,319.5C 274.209,320.404 275.209,320.737 276.5,320.5C 276.5,317.167 276.5,313.833 276.5,310.5C 276.67,309.178 276.337,308.011 275.5,307C 276.971,305.417 277.971,303.583 278.5,301.5C 280.104,300.713 280.771,299.38 280.5,297.5C 294.982,280.081 312.315,276.748 332.5,287.5C 345.574,280.1 358.908,279.6 372.5,286C 375.28,287.812 377.78,289.979 380,292.5C 386.644,284.387 395.311,280.72 406,281.5C 413.723,281.431 421.057,283.097 428,286.5C 439.812,280.876 451.979,280.043 464.5,284C 467.417,285.233 470.084,286.733 472.5,288.5C 469.294,295.078 465.961,301.578 462.5,308C 471.547,314.33 474.38,322.83 471,333.5C 467.613,340.551 462.113,345.051 454.5,347C 443.109,349.528 432.109,348.361 421.5,343.5C 406.24,350.62 391.407,349.954 377,341.5C 362.504,350.385 347.838,350.719 333,342.5C 316.908,351.38 301.574,350.38 287,339.5C 286.616,341.197 286.782,342.863 287.5,344.5C 274.365,346.16 261.031,347.16 247.5,347.5C 238.494,347.334 229.494,347.5 220.5,348C 223.02,354.21 225.687,360.376 228.5,366.5C 224.178,369.328 219.511,371.661 214.5,373.5C 210.258,365.45 206.592,357.117 203.5,348.5C 198.5,347.833 193.5,347.167 188.5,346.5C 184.673,339.517 182.173,332.184 181,324.5C 181.383,323.944 181.883,323.611 182.5,323.5C 186.436,321.234 189.769,318.234 192.5,314.5C 206.994,299.173 221.994,284.339 237.5,270C 227.833,269.667 218.167,269.333 208.5,269C 188.42,267.079 175.586,256.579 170,237.5C 148.706,264.487 121.206,274.653 87.5,268C 61.7724,261.887 43.6057,246.72 33,222.5C 18.361,181.439 27.861,147.273 61.5,120C 91.1667,102 120.833,102 150.5,120C 165.874,130.916 176.207,145.416 181.5,163.5C 191.833,163.5 202.167,163.5 212.5,163.5C 212.333,181.17 212.5,198.836 213,216.5C 212.422,229.42 218.256,233.753 230.5,229.5C 233.085,225.593 234.419,221.259 234.5,216.5 Z M 311.5,305.5 C 314.482,305.104 317.149,305.771 319.5,307.5C 318.188,312.364 318.188,317.197 319.5,322C 311.535,325.938 306.535,323.438 304.5,314.5C 305.199,310.045 307.533,307.045 311.5,305.5 Z M 348.5,322.5 C 352.981,321.352 357.648,321.185 362.5,322C 357.925,325.059 353.258,325.226 348.5,322.5 Z M 376.5,322.5 C 377.946,321.387 379.613,321.22 381.5,322C 380.038,323.628 378.372,323.795 376.5,322.5 Z"/></g>
<g><path style="opacity:1" fill="#121415" d="M 379.5,108.5 C 401.015,108.512 410.848,119.178 409,140.5C 401.265,157.524 388.765,162.358 371.5,155C 359.04,145.94 356.206,134.44 363,120.5C 367.286,114.698 372.786,110.698 379.5,108.5 Z"/></g>
<g><path style="opacity:1" fill="#00bdfc" d="M 369.5,260.5 C 369.667,236.164 369.5,211.831 369,187.5C 368.487,188.527 367.987,189.527 367.5,190.5C 355.434,213.632 343.1,236.632 330.5,259.5C 323.167,260.833 315.833,260.833 308.5,259.5C 296.808,237.446 285.141,215.446 273.5,193.5C 273.217,192.711 272.717,192.044 272,191.5C 271.5,203.495 271.333,215.495 271.5,227.5C 270.768,245.393 261.768,256.56 244.5,261C 229.067,264.621 213.733,264.288 198.5,260C 183.587,254.354 175.92,243.521 175.5,227.5C 175.666,222.489 175.499,217.489 175,212.5C 174.59,213.901 174.09,215.234 173.5,216.5C 160.634,246.785 137.634,262.451 104.5,263.5C 67.9812,260.817 44.8145,241.817 35,206.5C 28.3852,169.957 40.5518,141.79 71.5,122C 105.198,106.773 135.031,112.273 161,138.5C 169.108,147.716 174.274,158.383 176.5,170.5C 186.5,170.5 196.5,170.5 206.5,170.5C 206.333,188.17 206.5,205.836 207,223.5C 208.005,233.174 213.338,237.841 223,237.5C 231.678,238.335 237.345,234.669 240,226.5C 241.419,207.875 241.919,189.208 241.5,170.5C 260.17,170.333 278.836,170.5 297.5,171C 304.967,186.767 312.3,202.6 319.5,218.5C 326.926,202.726 334.26,186.893 341.5,171C 360.83,170.5 380.164,170.333 399.5,170.5C 399.5,200.5 399.5,230.5 399.5,260.5C 389.5,260.5 379.5,260.5 369.5,260.5 Z"/></g>
<g><path style="opacity:1" fill="#00bcfb" d="M 378.5,115.5 C 389.433,113.549 397.266,117.549 402,127.5C 404.167,145.333 396.333,153.167 378.5,151C 365.937,144.379 363.104,134.879 370,122.5C 372.628,119.79 375.461,117.456 378.5,115.5 Z"/></g>
<g><path style="opacity:1" fill="#05090b" d="M 96.5,145.5 C 122.777,142.952 138.277,154.618 143,180.5C 144,192.831 141.667,204.498 136,215.5C 126.787,228.247 114.287,233.413 98.5,231C 80.2627,225.751 70.4294,213.584 69,194.5C 67.1215,177.167 72.6215,162.667 85.5,151C 89.2585,149.121 92.9252,147.287 96.5,145.5 Z"/></g>
<g><path style="opacity:1" fill="#f6f6f6" d="M 101.5,151.5 C 120.881,151.042 132.381,160.376 136,179.5C 138.745,194.702 134.912,207.869 124.5,219C 112.167,226.333 99.8333,226.333 87.5,219C 81.0538,213.688 77.2204,206.855 76,198.5C 74.3842,187.727 75.7175,177.394 80,167.5C 84.6662,158.605 91.8329,153.271 101.5,151.5 Z"/></g>
<g><path style="opacity:1" fill="#111111" d="M 102.5,157.5 C 112.247,157.085 114.913,161.252 110.5,170C 102.412,172.875 98.579,170.042 99,161.5C 100.032,159.973 101.199,158.64 102.5,157.5 Z"/></g>
<g><path style="opacity:1" fill="#f2f2f2" d="M 104.5,160.5 C 108.976,160.8 110.31,162.967 108.5,167C 102.339,167.878 101.006,165.711 104.5,160.5 Z"/></g>
<g><path style="opacity:0.672" fill="#616161" d="M 301.5,164.5 C 279.5,164.5 257.5,164.5 235.5,164.5C 235.83,182.008 235.497,199.341 234.5,216.5C 234.5,198.833 234.5,181.167 234.5,163.5C 257.006,163.169 279.34,163.503 301.5,164.5 Z"/></g>
<g><path style="opacity:1" fill="#121212" d="M 82.5,170.5 C 87.9648,171.488 93.2981,172.988 98.5,175C 103.5,175.667 108.5,175.667 113.5,175C 118.001,173 122.668,171.5 127.5,170.5C 132.596,171.958 133.596,174.791 130.5,179C 125.444,180.681 120.444,182.514 115.5,184.5C 114.339,188.795 114.172,193.129 115,197.5C 116.735,203.272 118.235,209.105 119.5,215C 118.005,220.946 115.171,221.779 111,217.5C 109.53,212.757 107.864,208.091 106,203.5C 103.813,208.387 101.813,213.387 100,218.5C 97.6667,221.167 95.3333,221.167 93,218.5C 92.8633,212.031 93.8633,205.698 96,199.5C 96.8289,194.467 96.6623,189.467 95.5,184.5C 90.0718,182.64 84.9051,180.306 80,177.5C 78.9164,174.341 79.7498,172.008 82.5,170.5 Z"/></g>
<g><path style="opacity:1" fill="#ededed" d="M 83.5,174.5 C 97.8012,179.83 112.135,179.83 126.5,174.5C 128.731,174.981 128.898,175.648 127,176.5C 121.853,178.328 116.687,179.995 111.5,181.5C 111.334,187.842 111.5,194.175 112,200.5C 113.966,205.687 114.966,211.021 115,216.5C 112.283,210.354 109.95,204.021 108,197.5C 107.424,194.876 106.09,194.209 104,195.5C 102.183,202.788 99.6827,209.788 96.5,216.5C 96.1667,216 95.8333,215.5 95.5,215C 99.8119,204.246 101.479,193.079 100.5,181.5C 94.092,180.488 88.4253,178.155 83.5,174.5 Z"/></g>
<g><path style="opacity:0.739" fill="#5c5c5c" d="M 337.5,164.5 C 360.327,163.502 383.327,163.169 406.5,163.5C 406.5,198.167 406.5,232.833 406.5,267.5C 391.657,267.829 376.99,267.496 362.5,266.5C 376.833,266.5 391.167,266.5 405.5,266.5C 405.5,232.5 405.5,198.5 405.5,164.5C 382.833,164.5 360.167,164.5 337.5,164.5 Z"/></g>
<g><path style="opacity:1" fill="#008ebe" d="M 369.5,260.5 C 368.833,237.167 368.167,213.833 367.5,190.5C 367.987,189.527 368.487,188.527 369,187.5C 369.5,211.831 369.667,236.164 369.5,260.5 Z"/></g>
<g><path style="opacity:1" fill="#0090c1" d="M 273.5,193.5 C 272.833,204.833 272.167,216.167 271.5,227.5C 271.333,215.495 271.5,203.495 272,191.5C 272.717,192.044 273.217,192.711 273.5,193.5 Z"/></g>
<g><path style="opacity:1" fill="#005a79" d="M 175.5,227.5 C 174.833,223.833 174.167,220.167 173.5,216.5C 174.09,215.234 174.59,213.901 175,212.5C 175.499,217.489 175.666,222.489 175.5,227.5 Z"/></g>
<g><path style="opacity:0.155" fill="#adadad" d="M 362.5,266.5 C 361.833,250.167 361.167,233.833 360.5,217.5C 360.987,216.527 361.487,215.527 362,214.5C 362.5,231.83 362.667,249.163 362.5,266.5 Z"/></g>
<g><path style="opacity:0.09" fill="#b4b4b4" d="M 280.5,220.5 C 279.833,222.5 279.167,224.5 278.5,226.5C 278.336,223.813 278.503,221.146 279,218.5C 279.717,219.044 280.217,219.711 280.5,220.5 Z"/></g>
<g><path style="opacity:1" fill="#00bdfc" d="M 281.5,340.5 C 263.356,342.163 245.023,343.163 226.5,343.5C 214.829,343.667 203.162,343.5 191.5,343C 188.613,337.419 186.78,331.586 186,325.5C 207.333,304.833 228.667,284.167 250,263.5C 252.786,269.35 255.286,275.35 257.5,281.5C 253.816,286.511 249.816,291.178 245.5,295.5C 249.372,305.119 253.038,314.785 256.5,324.5C 262.868,324.17 269.202,324.504 275.5,325.5C 277.79,330.409 279.79,335.409 281.5,340.5 Z"/></g>
<g><path style="opacity:1" fill="#00bbf9" d="M 303.5,285.5 C 310.655,285.089 317.655,285.922 324.5,288C 326.478,288.481 327.811,289.647 328.5,291.5C 327.03,295.774 325.03,299.774 322.5,303.5C 310.807,298.426 303.474,301.926 300.5,314C 302.375,327.026 309.541,331.192 322,326.5C 324.794,329.915 326.961,333.749 328.5,338C 328.241,339.261 327.574,340.261 326.5,341C 307.113,348.539 292.28,343.372 282,325.5C 280.696,319.577 280.196,313.577 280.5,307.5C 283.187,307.664 285.854,307.497 288.5,307C 286.75,305.681 284.75,305.181 282.5,305.5C 283.85,299.986 286.85,295.486 291.5,292C 295.434,289.536 299.434,287.369 303.5,285.5 Z"/></g>
<g><path style="opacity:1" fill="#00baf9" d="M 346.5,285.5 C 356.401,284.128 365.401,286.295 373.5,292C 376.614,295.06 379.114,298.56 381,302.5C 383.158,293.676 388.658,288.176 397.5,286C 406.112,284.876 414.445,285.876 422.5,289C 423.517,290.049 423.684,291.216 423,292.5C 421.421,295.994 419.587,299.327 417.5,302.5C 412.14,299.724 406.474,298.89 400.5,300C 399.483,301.049 399.316,302.216 400,303.5C 406.03,306.516 412.197,309.349 418.5,312C 423.547,315.927 426.047,321.094 426,327.5C 426.347,325.82 427.347,324.82 429,324.5C 432.908,327.288 437.242,328.955 442,329.5C 446.937,330.23 448.604,328.23 447,323.5C 439.672,321.254 433.172,317.587 427.5,312.5C 421.188,298.623 425.521,289.789 440.5,286C 449.107,284.796 457.441,285.796 465.5,289C 466.022,289.561 466.355,290.228 466.5,291C 465.097,294.473 463.43,297.806 461.5,301C 457.389,300.531 453.223,300.031 449,299.5C 447.167,299.667 445.333,299.833 443.5,300C 442.14,301.938 442.473,303.604 444.5,305C 452.242,306.798 459.075,310.298 465,315.5C 467.98,321.597 468.313,327.931 466,334.5C 460.067,341.489 452.4,344.822 443,344.5C 435.027,344.453 427.861,342.12 421.5,337.5C 408.198,346.201 394.531,346.701 380.5,339C 378.386,337.502 377.886,335.669 379,333.5C 365.841,345.697 351.341,347.53 335.5,339C 320.399,326.152 318.566,311.652 330,295.5C 334.715,290.732 340.215,287.399 346.5,285.5 Z M 348.5,322.5 C 353.258,325.226 357.925,325.059 362.5,322C 357.648,321.185 352.981,321.352 348.5,322.5 Z M 376.5,322.5 C 378.372,323.795 380.038,323.628 381.5,322C 379.613,321.22 377.946,321.387 376.5,322.5 Z"/></g>
<g><path style="opacity:0.98" fill="#313131" d="M 279.5,286.5 C 280.289,286.783 280.956,287.283 281.5,288C 278.651,291.016 275.651,293.85 272.5,296.5C 271.479,295.998 271.312,295.332 272,294.5C 274.705,291.964 277.205,289.297 279.5,286.5 Z"/></g>
<g><path style="opacity:1" fill="#00b6f3" d="M 268.5,297.5 C 268.685,299.196 269.519,300.529 271,301.5C 271.805,304.696 271.638,307.696 270.5,310.5C 268.275,306.377 266.275,302.044 264.5,297.5C 265.7,296.708 267.033,296.708 268.5,297.5 Z"/></g>
<g><path style="opacity:1" fill="#3b5a6a" d="M 268.5,297.5 C 271.735,299.331 273.401,302.164 273.5,306C 272.929,308.544 272.262,311.044 271.5,313.5C 270.596,312.791 270.263,311.791 270.5,310.5C 271.638,307.696 271.805,304.696 271,301.5C 269.519,300.529 268.685,299.196 268.5,297.5 Z"/></g>
<g><path style="opacity:1" fill="#0a0d0e" d="M 363.5,305.5 C 357.021,306.491 350.354,306.824 343.5,306.5C 344.12,300.554 347.453,297.887 353.5,298.5C 358.985,297.899 362.318,300.233 363.5,305.5 Z"/></g>
<g><path style="opacity:0.835" fill="#454545" d="M 280.5,297.5 C 280.771,299.38 280.104,300.713 278.5,301.5C 278.565,301.062 278.399,300.728 278,300.5C 276.407,302.285 274.907,302.452 273.5,301C 275.609,299.354 277.943,298.188 280.5,297.5 Z"/></g>
<g><path style="opacity:1" fill="#00739a" d="M 363.5,305.5 C 364.043,305.56 364.376,305.893 364.5,306.5C 357.344,307.819 350.344,307.819 343.5,306.5C 350.354,306.824 357.021,306.491 363.5,305.5 Z"/></g>
<g><path style="opacity:1" fill="#020508" d="M 238.5,324.5 C 230.316,324.826 222.316,324.492 214.5,323.5C 220.105,318.397 225.605,313.064 231,307.5C 233.983,312.949 236.483,318.616 238.5,324.5 Z"/></g>
<g><path style="opacity:1" fill="#0d1112" d="M 382.5,309.5 C 387.763,316.479 394.763,320.979 403.5,323C 406.167,325 406.167,327 403.5,329C 400.5,329.667 397.5,329.667 394.5,329C 391.572,327.62 388.738,326.12 386,324.5C 384.338,325.997 382.838,327.663 381.5,329.5C 377.281,327.224 372.948,325.224 368.5,323.5C 365.965,325.195 363.298,326.695 360.5,328C 350.533,330.861 344.533,327.361 342.5,317.5C 355.833,317.5 369.167,317.5 382.5,317.5C 382.5,314.833 382.5,312.167 382.5,309.5 Z M 348.5,322.5 C 353.258,325.226 357.925,325.059 362.5,322C 357.648,321.185 352.981,321.352 348.5,322.5 Z M 376.5,322.5 C 378.372,323.795 380.038,323.628 381.5,322C 379.613,321.22 377.946,321.387 376.5,322.5 Z"/></g>
<g><path style="opacity:0.373" fill="#929292" d="M 276.5,310.5 C 276.5,313.833 276.5,317.167 276.5,320.5C 275.209,320.737 274.209,320.404 273.5,319.5C 275.11,316.797 276.11,313.797 276.5,310.5 Z"/></g>
<g><path style="opacity:0.914" fill="#474747" d="M 192.5,314.5 C 189.769,318.234 186.436,321.234 182.5,323.5C 185.231,319.766 188.564,316.766 192.5,314.5 Z"/></g>
<g><path style="opacity:1" fill="#7f7f7f" d="M 432.5,322.5 C 432.56,321.957 432.893,321.624 433.5,321.5C 436.531,323.016 439.531,324.516 442.5,326C 438.932,325.726 435.599,324.56 432.5,322.5 Z"/></g>
<g><path style="opacity:1" fill="#004a64" d="M 214.5,323.5 C 222.316,324.492 230.316,324.826 238.5,324.5C 230.01,325.657 221.343,325.824 212.5,325C 213.044,324.283 213.711,323.783 214.5,323.5 Z"/></g>
<g><path style="opacity:1" fill="#008bba" d="M 281.5,340.5 C 282.404,341.209 282.737,342.209 282.5,343.5C 263.833,343.5 245.167,343.5 226.5,343.5C 245.023,343.163 263.356,342.163 281.5,340.5 Z"/></g>
<g><path style="opacity:0.305" fill="#7e7e7e" d="M 287.5,344.5 C 288.404,345.209 288.737,346.209 288.5,347.5C 274.833,347.5 261.167,347.5 247.5,347.5C 261.031,347.16 274.365,346.16 287.5,344.5 Z"/></g>
<g><path style="opacity:1" fill="#00b8f5" d="M 206.5,347.5 C 210.5,347.5 214.5,347.5 218.5,347.5C 220.259,353.691 222.592,359.691 225.5,365.5C 222.202,367.16 218.869,368.827 215.5,370.5C 211.905,363.044 208.905,355.377 206.5,347.5 Z"/></g>
</svg>
